<?xml version="1.0" encoding="UTF-8"?>
<svg id="Layer_1" data-name="Layer 1" xmlns="http://www.w3.org/2000/svg" viewBox="0 0 360 360">
  <defs>
    <style>
      .cls-1 {
        fill: #004731;
      }
    </style>
  </defs>
  <path class="cls-1" d="m153.19,183.37h16.73c4.95,0,8.82-1.07,11.61-3.2.78-.6,1.43-1.28,1.99-2.01.7-.78,1.29-1.67,1.7-2.7,3.43-8.6,6.15-13.72,8.06-15.23.83-.66,2.69-.72,7.09-.68.75,0,1.53.01,2.35.01,5.03,0,9.11-4.08,9.11-9.11s-4.08-9.11-9.11-9.11h-2.22c-14.98-.15-21.5,2.9-29.79,21.62h-9.5l19.81-49.52c2.96-7.46,4.44-13.83,4.44-19.12,0-8.37-3.09-15.32-9.26-20.87-6.18-5.55-13.87-8.32-23.09-8.32-12.58,0-23.53,4.63-32.87,13.87-9.33,9.25-14,20.11-14,32.57,0,8.54,2.55,15.81,7.64,21.81,5.09,6.01,11.25,9.01,18.48,9.01,3.64,0,6.69-1.08,9.13-3.24,2.45-2.16,3.67-4.87,3.67-8.11,0-3.59-2.05-6.2-6.15-7.85-3.87-1.48-6.59-3.2-8.15-5.16-1.56-1.96-2.35-4.6-2.35-7.9,0-6.09,2.26-11.64,6.79-16.65,4.52-5.01,9.55-7.51,15.07-7.51,3.3,0,6.15.98,8.54,2.95,2.39,1.96,3.59,4.28,3.59,6.96,0,3.13-1.71,8.99-5.12,17.59l-19.89,49.52-13.49.17c-17.02,0-30.36,2.7-40.04,8.11-7.63,4.27-13.52,9.75-17.67,16.43-4.16,6.69-6.23,13.99-6.23,21.9,0,10.53,3.54,19.32,10.63,26.38,7.09,7.06,15.92,10.59,26.51,10.59,11.21,0,20.57-3.57,28.09-10.71,7.51-7.14,14.71-19.39,21.6-36.75l6.32-15.71Zm-28.17,12.21c-4.1,10.24-8.27,17.69-12.51,22.33-4.24,4.64-9.01,6.96-14.3,6.96-4.16,0-7.68-1.54-10.59-4.61-2.9-3.07-4.35-6.83-4.35-11.27,0-4.78,1.71-9.15,5.12-13.1,3.42-3.96,8.08-6.99,14-9.09,6.37-2.28,15.54-3.42,27.49-3.42l-4.87,12.21Z"/>
  <path class="cls-1" d="m296.36,140.44l-5.98-1.37h-58.31c-4.95,0-8.82,1.07-11.61,3.2-1.57,1.21-2.65,2.7-3.34,4.42-.19.34-.39.66-.54,1.03-3.44,8.6-6.15,13.72-8.06,15.23-.83.66-2.7.71-7.09.68-.75,0-1.53-.01-2.35-.01-5.03,0-9.11,4.08-9.11,9.11s4.08,9.11,9.11,9.11h2.22c.26.01.52.01.78.01,14.65,0,21.04-3.32,29.34-22.38h13.29l-29.54,72.82c-6.03,14.86-11.61,25.24-16.73,31.16-5.12,5.92-11.1,8.88-17.93,8.88-5.75,0-10.3-1.85-13.66-5.55-3.36-3.7-5.04-8.74-5.04-15.11s1.68-12.09,5.04-17.67c3.36-5.58,7.94-10.13,13.75-13.66,6.88-4.15,16.02-6.74,27.4-7.77,4.95-.51,8.25-1.36,9.9-2.56,2.96-2.1,4.44-4.92,4.44-8.45,0-3.24-1.38-5.88-4.14-7.9-2.76-2.02-6.36-3.03-10.8-3.03-9.28,0-18.67,1.96-28.17,5.89-9.5,3.93-17.42,9.11-23.73,15.54-11.78,12.01-17.67,26.01-17.67,42,0,12.12,3.74,21.95,11.23,29.5,7.48,7.54,17.23,11.31,29.24,11.31,11.21,0,21.17-3.36,29.88-10.07,5.92-4.67,10.76-10.17,14.51-16.52,3.76-6.35,9.22-18.34,16.39-35.98l29.54-72.82h15.54c4.95,0,8.82-1.07,11.61-3.2,2.79-2.14,4.18-5.08,4.18-8.84,0-3.36-1.2-5.69-3.59-7Z"/>
</svg>